<?xml version="1.0" standalone="no"?>
<!DOCTYPE svg PUBLIC "-//W3C//DTD SVG 20010904//EN"
 "http://www.w3.org/TR/2001/REC-SVG-20010904/DTD/svg10.dtd">
<svg version="1.0" xmlns="http://www.w3.org/2000/svg"
 width="260.000000pt" height="260.000000pt" viewBox="0 0 260.000000 260.000000"
 preserveAspectRatio="xMidYMid meet">
<metadata>
Created by potrace 1.14, written by Peter Selinger 2001-2017
</metadata>
<g transform="translate(0.000000,260.000000) scale(0.100000,-0.100000)"
fill="#000000" stroke="none">
<path d="M1284 2548 c-3 -5 -11 -8 -17 -7 -32 4 -67 -2 -79 -14 -7 -8 -19 -12
-26 -9 -6 2 -12 -2 -12 -8 0 -7 -6 -10 -14 -7 -7 3 -24 -5 -37 -17 -13 -12
-41 -30 -61 -39 -21 -10 -38 -21 -38 -25 0 -5 -16 -14 -35 -20 -23 -9 -32 -18
-28 -27 3 -9 -1 -15 -9 -15 -8 0 -33 -18 -56 -40 -22 -22 -44 -40 -46 -40 -11
0 -116 -109 -116 -119 0 -6 -4 -11 -10 -11 -5 0 -10 -7 -10 -16 0 -8 -4 -13
-8 -10 -14 8 -186 -196 -175 -208 3 -3 1 -6 -5 -6 -7 0 -12 -6 -12 -14 0 -7
-7 -19 -15 -26 -8 -7 -36 -47 -61 -89 -26 -42 -50 -78 -55 -81 -6 -4 -27 -47
-34 -70 -18 -62 -30 -90 -37 -90 -5 0 -6 -5 -3 -10 4 -6 2 -16 -3 -23 -5 -7
-9 -19 -10 -27 0 -8 -10 -40 -22 -70 -32 -80 -40 -111 -40 -146 0 -17 -3 -34
-7 -37 -9 -10 -10 -137 -1 -137 5 0 8 -22 8 -50 0 -27 4 -50 9 -50 5 0 7 -13
5 -30 -3 -17 -1 -30 5 -30 6 0 8 -6 5 -14 -3 -8 -1 -17 5 -20 5 -4 13 -27 17
-51 3 -25 10 -47 14 -50 5 -3 6 -14 3 -25 -3 -11 0 -27 7 -35 6 -8 9 -19 5
-25 -3 -5 -2 -10 3 -10 5 0 12 -23 15 -51 4 -28 10 -56 15 -63 5 -6 8 -19 7
-28 -2 -10 1 -18 5 -18 5 0 12 -17 16 -37 8 -45 50 -137 70 -154 8 -6 11 -15
8 -20 -3 -5 0 -9 5 -9 6 0 11 -4 11 -9 0 -5 5 -22 12 -38 6 -15 12 -30 13 -33
1 -3 5 -14 10 -25 4 -11 14 -35 21 -53 7 -17 18 -32 23 -32 6 0 13 -16 17 -35
4 -24 12 -35 23 -35 10 0 21 -3 25 -7 4 -4 340 -7 746 -7 696 -1 741 0 746 16
3 10 10 18 15 18 5 0 8 3 7 8 0 4 7 25 17 47 10 22 18 43 17 48 -1 4 2 7 6 7
5 0 14 18 21 40 6 22 16 40 22 40 6 0 9 6 6 13 -2 6 5 25 15 40 11 15 21 34
22 42 1 9 8 21 14 27 7 7 12 22 12 35 0 13 4 23 10 23 5 0 7 7 4 15 -4 8 -1
15 5 15 6 0 10 3 9 8 -3 11 23 96 33 108 5 6 6 14 3 17 -4 3 -3 14 2 24 4 10
9 25 11 33 15 75 28 120 36 120 4 0 5 5 2 10 -4 6 -1 17 5 25 6 8 9 19 6 24
-4 5 -2 12 3 15 9 6 25 82 22 104 -1 8 2 19 7 25 5 7 8 31 7 55 -1 23 2 45 7
48 11 7 10 141 -1 149 -5 3 -8 19 -6 35 2 16 0 32 -4 34 -5 3 -14 27 -21 53
-7 27 -19 57 -27 68 -7 11 -13 27 -13 37 0 9 -5 29 -12 45 -6 15 -12 30 -13
33 -1 3 -4 12 -8 20 -3 8 -11 34 -17 58 -6 23 -15 42 -19 42 -5 0 -16 18 -25
40 -9 22 -19 40 -24 40 -4 0 -13 15 -20 34 -11 31 -20 44 -71 103 -11 13 -25
36 -33 53 -7 16 -19 30 -25 30 -7 0 -13 5 -13 10 0 6 -17 28 -37 49 -21 21
-54 58 -73 82 -19 24 -38 46 -42 47 -4 2 -8 10 -8 18 0 8 -7 14 -15 14 -9 0
-20 11 -25 25 -5 14 -14 26 -20 26 -5 1 -14 2 -20 3 -5 0 -32 25 -61 54 -28
29 -64 59 -80 67 -16 9 -29 20 -29 25 0 6 -7 10 -15 10 -9 0 -18 7 -21 15 -4
8 -10 12 -15 9 -5 -3 -9 0 -9 5 0 6 -6 11 -13 11 -7 0 -19 9 -27 20 -8 11 -18
20 -23 20 -5 0 -20 9 -34 20 -14 11 -29 17 -34 14 -5 -3 -9 -1 -9 4 0 5 -20
13 -45 16 -25 4 -45 11 -45 15 0 11 -79 10 -86 -1z"/>
</g>
</svg>
